<svg xmlns="http://www.w3.org/2000/svg" width="479.524" height="499.839" viewBox="0 0 2688 2802" shape-rendering="geometricPrecision" text-rendering="geometricPrecision" image-rendering="optimizeQuality" fill-rule="evenodd" clip-rule="evenodd"><defs><style>.fil0{fill:#263357}.fil0,.fil1,.fil3{fill-rule:nonzero}.fil1{fill:#f86464}.fil3{fill:#fff}</style></defs><g id="Слой_x0020_1"><path class="fil0" d="M2437 205h182v-30c0-42-11-94-64-102-5-1-10-1-15-1-57 0-103 46-103 102v31zm217 68h-251c-19 0-34-15-34-34v-65c0-94 77-171 171-171 9 0 18 1 26 3 76 11 122 74 122 169v64c0 19-15 34-34 34zm-79 1869c-20 0-36 16-36 35 0 20 16 36 36 36 19 0 35-16 35-36 0-19-16-35-35-35z"/><path class="fil1" d="M1298 424l-111-16-49-99-50 99-111 16 80 77-19 109 100-51 99 51-19-109zm410 0l-111-16-49-99-50 99-111 16 80 77-19 109 100-51 99 51-19-109zm-228 319l-111-16-49-99-50 99-111 16 81 77-19 109 99-51 99 51-19-109zm410 0l-111-16-49-99-50 99-111 16 81 77-19 109 99-51 99 51-19-109zm228-319l-111-16-49-99-50 99-111 16 80 77-19 109 100-51 99 51-19-109z"/><path class="fil0" d="M2286 2528H740c-19 0-34-15-34-34s15-34 34-34h1546c46 0 83-37 83-83V219c0-19 15-34 34-34s34 15 34 34v2158c0 84-67 151-151 151zM740 284c-19 0-34-16-34-35C706 112 818 0 956 0h1581c19 0 34 15 34 34s-15 34-34 34H956c-100 0-182 82-182 181 0 19-15 35-34 35zM330 668c-13 0-24-8-30-19-13-10-26-23-33-51-13-53 7-76 20-85 18-12 41-12 60 1 15 11 19 32 8 48-6 8-14 13-23 14 1 2 1 4 2 6 2 8 3 9 7 12 6 4 19 14 23 33 4 18-8 36-27 40-2 0-4 1-7 1zm343 0c-2 0-5-1-7-1-18-4-30-22-27-40 4-19 17-29 23-33 5-3 6-4 8-12 0-2 1-4 1-6-9-1-17-6-23-14-11-16-7-37 9-48 18-13 41-13 59-1 13 9 33 32 20 85-7 28-20 41-33 51-5 11-17 19-30 19z"/><path class="fil0" d="M391 465c22 0 44 9 65 18 13 5 25 10 39 14 41 12 87 12 136 2 6-2 12-2 18-1 0-9-1-18-4-27-21-66-65-95-143-95-77 0-121 28-142 90-1 2-2 5-2 7 11-5 22-8 33-8zm-50 135c-11 0-22-5-29-15-26-42-32-95-17-141 31-91 101-136 207-136 108 0 178 48 208 143 13 42 8 91-14 132-7 11-19 18-31 17-13 0-25-8-30-19-2-5-4-9-6-12-55 9-106 7-154-7-16-5-31-11-44-16-17-6-37-15-43-11-2 1-5 5-7 10-3 6-5 15-6 25-1 15-12 26-26 30h-8z"/><path class="fil0" d="M502 855c-100 0-186-91-205-216-3-19 10-36 28-39 19-3 36 10 39 28 14 92 72 158 138 158 65 0 123-66 137-158 3-18 20-31 39-28 18 3 31 20 29 39-19 125-105 216-205 216z"/><path d="M182 1640l23 273h569l23-250h160v-547c0-122-140-219-265-247-117 91-270 88-382 0-125 28-264 79-264 202l-23 569h159z" fill="#61c4f2" fill-rule="nonzero"/><path class="fil0" d="M892 1868H786c-19 0-34-16-34-34 0-19 15-35 34-35h106c10 0 19-8 19-19v-674c-8-92-116-178-217-206-60 42-129 65-200 65-72 0-141-23-201-65-111 29-225 100-225 196v686c0 10 8 17 17 17h109c19 0 34 16 34 35 0 18-15 34-34 34H85c-47 0-85-38-85-86v-686c0-139 147-234 294-266 9-3 20 0 28 6 51 39 110 60 172 60 61 0 121-21 172-60 8-6 18-9 28-6 132 29 274 139 285 272v678c0 48-39 88-87 88zm-174 774c-19 0-35-15-35-34v-660c0-19 16-35 35-35 18 0 34 16 34 35v660c0 19-16 34-34 34z"/><path class="fil0" d="M306 2642c-31 0-55 25-55 56v7c0 16 12 28 28 28h422c15 0 28-12 28-28v-7c0-31-25-56-55-56H306zm395 160H279c-53 0-97-44-97-97v-7c0-69 56-124 124-124h368c68 0 123 55 123 124v7c0 53-43 97-96 97z"/><path class="fil0" d="M490 2779c-19 0-34-15-34-34v-775c0-19 15-34 34-34s34 15 34 34v775c0 19-15 34-34 34zm-228-137c-19 0-34-15-34-34v-683c0-19 15-34 34-34s34 15 34 34v683c0 19-15 34-34 34z"/><path class="fil0" d="M786 1959H194c-19 0-35-15-35-34v-775c0-19 16-34 35-34s34 15 34 34v741h524v-763c0-19 15-35 34-35s34 16 34 35v797c0 19-15 34-34 34z"/><path class="fil0" d="M923 1708H809c-19 0-35-15-35-34s16-34 35-34h114c18 0 34 15 34 34s-16 34-34 34zm-752 0H57c-19 0-34-15-34-34s15-34 34-34h114c19 0 34 15 34 34s-15 34-34 34zm182-432c-16 0-31-12-34-29l-57-353c-3-19 10-36 29-39 18-4 36 9 39 28l57 353c3 19-10 36-28 39-2 0-4 1-6 1zm285-171c-4 0-8-1-12-2-18-7-27-27-20-44l68-183c7-17 26-26 44-20 18 7 27 27 20 44l-68 183c-5 13-18 22-32 22z"/><path class="fil3" d="M353 1207c-44 0-80 36-80 80s36 80 80 80 80-36 80-80-36-80-80-80z"/><path class="fil0" d="M672 1253c-6 0-12-2-18-5-16-10-21-31-11-47 11-19 25-56 17-73-1-3-3-9-19-13-21-5-37-4-48 4-18 14-23 44-24 55 0 19-16 35-35 33-19-1-33-16-33-35 0-7 4-72 50-107 20-15 54-29 106-16 41 10 59 34 67 53 23 56-18 126-23 134-6 11-17 17-29 17z"/><path class="fil0" d="M656 1185c-25 2-43 24-41 49 3 25 25 44 50 41 25-2 43-24 41-49s-25-44-50-41zm-114-23c-25 2-43 25-41 50 3 25 25 43 50 41 25-3 43-25 41-50s-25-44-50-41zm1178 0h-638c-19 0-34-16-34-34 0-19 15-35 34-35h638c19 0 34 16 34 35 0 18-15 34-34 34z"/><path class="fil1" d="M1686 2027v296l-137-91-137 91v-296z"/><path class="fil0" d="M1925 1389h-843c-19 0-34-15-34-34s15-34 34-34h843c19 0 34 15 34 34s-15 34-34 34z"/><path class="fil1" d="M1549 1555c-164 0-296 132-296 296 0 163 132 296 296 296 163 0 296-133 296-296 0-164-133-296-296-296z"/><path class="fil3" d="M1549 1714c-76 0-137 61-137 137 0 75 61 136 137 136 75 0 137-61 137-136 0-76-62-137-137-137z"/><path class="fil0" d="M2563 2073c-19 0-35-16-35-34V945c0-19 16-34 35-34 18 0 34 15 34 34v1094c0 18-16 34-34 34z"/></g></svg>