<svg xmlns="http://www.w3.org/2000/svg" width="439.744" height="479.528" viewBox="0 0 1500 1636" shape-rendering="geometricPrecision" text-rendering="geometricPrecision" image-rendering="optimizeQuality" fill-rule="evenodd" clip-rule="evenodd"><defs><style>.fil0{fill:#263357}.fil0,.fil1,.fil2{fill-rule:nonzero}.fil1{fill:#61c4f2}.fil2{fill:#fff}</style></defs><g id="Слой_x0020_1"><path class="fil0" d="M344 237c0 12 9 22 22 22 12 0 22-10 22-22s-10-22-22-22c-13 0-22 10-22 22z"/><path class="fil0" d="M884 1485c-17 0-34-4-48-14-11-8-24-25-24-55 0-12 10-21 21-21 12 0 21 9 21 21 0 16 6 20 7 22 17 12 61 0 76-5h3c305-85 518-366 518-683 0-190-74-368-208-502C1116 115 939 42 750 42h-4C368 43 52 352 42 730c-6 200 70 387 212 526 9 8 9 22 1 30s-21 8-30 0C77 1140-5 938 0 729 11 329 346 2 746 0c202-2 391 77 533 218 142 142 221 331 221 532 0 336-226 633-548 723l-4 1c-15 4-39 11-64 11z"/><path class="fil1" d="M394 1208c-113 0-204 91-204 203 0 113 91 204 204 204 112 0 203-91 203-204 0-112-91-203-203-203z"/><path class="fil0" d="M394 1229c-101 0-183 82-183 182 0 101 82 183 183 183s183-82 183-183c0-100-82-182-183-182zm0 407c-124 0-224-101-224-225 0-123 100-224 224-224s224 101 224 224c0 124-100 225-224 225zm446-216c-50 0-97-29-131-80-1-1-1-1-1-2l-125-227c-32-62-25-98-13-118 12-21 34-28 48-28h12c11 0 21 9 21 21 0 11-10 20-21 20h-12c-2 0-9 2-13 9s-11 28 15 76l124 226c26 39 60 61 96 61s70-22 97-61l127-231c25-44 19-64 15-71s-11-9-12-9h-16c-12 0-21-9-21-20 0-12 9-21 21-21h16c15 0 36 9 48 29 11 20 18 55-15 113l-127 231c0 1-1 1-1 2-35 51-81 80-132 80z"/><path class="fil2" d="M394 1327c-47 0-85 38-85 84 0 47 38 85 85 85s85-38 85-85c0-46-38-84-85-84z"/><path class="fil1" d="M765 996c0 47-4 85-51 85s-84-38-84-85c0-46 37-84 84-84s51 38 51 84z"/><path d="M1105 381H382c-61 0-110 49-110 110v252c0 60 49 110 110 110h723c60 0 109-50 109-110V491c0-61-49-110-109-110z" fill="#f86464" fill-rule="nonzero"/><path class="fil1" d="M923 996c0 47 4 85 51 85 46 0 84-38 84-85 0-46-38-84-84-84-47 0-51 38-51 84z"/><path class="fil2" d="M688 642h-57l51-78 5-11 1 1v88zm49-153h-49L587 651l2 29h99v53h49v-53h28v-38h-28V489zm35 265h47l90-265h-48l-89 265zm152-265v38h124c-23 27-42 55-54 83s-19 59-19 93v30h49v-30c0-34 5-63 15-89s29-55 56-87v-38H924zM464 694l40-48c19-21 32-38 40-50s12-25 12-40c0-21-7-38-21-51s-33-19-58-19-45 7-60 22-22 33-22 55l1 1h47c0-12 3-22 9-29 6-8 14-12 25-12 10 0 17 3 22 9s8 14 8 24c0 8-3 17-7 26-5 9-13 20-24 33l-76 86v32h164v-38H464v-1z"/><path class="fil0" d="M1388 769c-12 0-21-9-21-20 0-341-277-617-617-617-109 0-216 29-310 83-10 6-22 2-28-8-6-9-3-22 7-28 100-58 215-89 331-89 363 0 658 295 658 659 0 11-9 20-20 20z"/></g></svg>