<svg xmlns="http://www.w3.org/2000/svg" width="475.461" height="125.8mm" viewBox="0 0 2642 2642" shape-rendering="geometricPrecision" text-rendering="geometricPrecision" image-rendering="optimizeQuality" fill-rule="evenodd" clip-rule="evenodd"><defs><style>.fil1{fill:#263357;fill-rule:nonzero}.fil0{fill:#61c4f2}.fil0,.fil2,.fil3{fill-rule:nonzero}.fil2{fill:#f86464}.fil3{fill:#fff}</style></defs><g id="Слой_x0020_1"><path class="fil0" d="M1231 316H918l4 465c-24 0-84 59-124 64-44 5-30 89-34 143-61 14-192-136-206-139l-151-2v813c0 69 55 124 124 124h700c68 0 124-55 124-124v-428l-45-148 45-172V440c0-68-56-124-124-124z"/><path class="fil1" d="M1095 2033H401c-109 0-198-88-198-195V997c0-18 15-34 34-34s34 16 34 34v841c0 70 58 127 130 127h694c19 0 34 15 34 34s-15 34-34 34zm407-1604c-19 0-34-15-34-34V262c0-70-58-126-129-126H913c-18 0-33-16-33-34 0-19 15-34 33-34h426c108 0 197 87 197 194v133c0 19-15 34-34 34z"/><path class="fil2" d="M105 826l437 10 211 161-8-161 76-10c34 0 62-28 62-63l-2-650c0-35-33-68-68-68H105c-34 0-62 28-62 63v655c0 35 28 63 62 63z"/><path class="fil1" d="M820 0H128C58 0 0 57 0 126v628c0 70 58 127 128 127h427l139 138c13 13 30 20 47 20 11 0 21-2 30-7 26-13 41-41 38-69l-11-82h22c71 0 129-57 129-127V126C949 57 891 0 820 0zm0 68c34 0 61 26 61 58v628c0 33-27 59-61 59h-98l19 158-158-158H128c-33 0-60-26-60-59V126c0-32 27-58 60-58h692z"/><path class="fil3" d="M644 316H215c-19 0-34-15-34-34 0-18 15-34 34-34h429c18 0 34 16 34 34 0 19-16 34-34 34zm0 362H215c-19 0-34-16-34-34 0-19 15-34 34-34h429c18 0 34 15 34 34 0 18-16 34-34 34zM418 497H215c-19 0-34-15-34-34s15-34 34-34h203c19 0 34 15 34 34s-15 34-34 34z"/><path class="fil1" d="M553 2191H330c-157 0-285-128-285-285v-585c0-19 15-34 34-34s34 15 34 34v585c0 120 97 217 217 217h223c19 0 34 15 34 34s-15 34-34 34zm134-66c-21 0-37 16-37 37 0 20 16 37 37 37 20 0 37-17 37-37 0-21-17-37-37-37zm499-476H576c-19 0-34-15-34-34s15-34 34-34h610c18 0 34 15 34 34s-16 34-34 34zm0-204H576c-19 0-34-15-34-33 0-19 15-34 34-34h610c18 0 34 15 34 34 0 18-16 33-34 33zm0-225H576c-19 0-34-16-34-34 0-19 15-34 34-34h610c18 0 34 15 34 34 0 18-16 34-34 34zm193 63c-16 0-30-11-33-27-1-2-6-5-10-8-20-14-49-35-65-99-24-98 3-141 30-159 26-18 61-16 89 3 15 11 19 32 8 47-10 16-31 19-47 9-4-3-9-5-12-3-6 4-17 27-2 87 9 39 23 49 38 60 14 9 32 22 38 50 3 18-9 36-27 40h-7zm856 0c-2 0-4 0-6-1-19-3-31-21-27-39 6-28 24-41 37-50 15-11 29-21 39-60 14-60 3-83-2-87-3-2-9 0-13 3-15 10-36 7-47-9-11-15-7-36 8-47 28-19 64-21 90-3s53 61 29 159c-15 64-45 85-65 99-3 3-8 6-9 8-4 16-18 27-34 27zm-338-18c4 13 18 22 35 22h89c19 0 34-15 34-34v-22c0-19-15-34-34-34h-90c-19 0-34 15-34 34v34zm124 90h-89c-51 0-95-35-102-81 0-2-1-4-1-6v-37c0-56 46-102 102-102h90c56 0 102 46 102 102v22c0 57-46 102-102 102zm-463-90c4 13 19 22 35 22h90c18 0 33-15 33-34v-22c0-19-15-34-33-34h-91c-18 0-34 15-34 34v34zm125 90h-90c-50 0-94-35-102-81v-43c0-56 45-102 101-102h91c56 0 101 46 101 102v22c0 57-45 102-101 102z"/><path class="fil1" d="M2156 961c22 0 43 12 54 33 1 3 3 5 4 8 18-58 18-119 1-175-59-187-189-274-408-274-214 0-342 83-403 260-17 53-19 109-6 163 16-35 38-62 66-78 64-37 132-9 211 22 32 13 65 26 101 37 111 32 234 34 366 5 5-1 9-1 14-1zm-750 154c-11 0-22-6-28-16-58-91-72-206-38-308 71-205 224-305 467-305 250 0 404 105 472 321 30 94 18 200-32 290-6 11-18 19-30 18-13-1-25-8-30-20-7-15-15-29-22-43-5-7-9-15-13-23-142 31-275 28-395-7-40-12-75-26-107-39-74-30-118-46-152-26-17 10-30 26-40 51-8 21-15 47-18 77-2 14-12 26-26 29-3 1-5 1-8 1zm401 636c-224 0-418-209-461-497-3-18 10-35 28-38 19-3 36 10 39 28 38 255 204 439 394 439 191 0 357-184 395-439 3-18 20-31 38-28 19 3 32 20 29 38-43 288-238 497-462 497z"/><path class="fil1" d="M1807 1580c-45 0-91-17-133-48-14-11-17-33-6-48 11-14 33-17 47-6 61 46 124 46 184 0 15-11 36-8 48 6 11 15 8 37-7 48-42 31-87 48-133 48zm802 1062h-754c-19 0-34-15-34-33 0-19 15-34 34-34h720v-348c0-88-134-314-295-377-17-7-26-27-19-44 7-18 26-26 44-19 186 73 337 319 337 440v382c0 18-15 33-33 33zm-919 0h-685c-19 0-34-15-34-33v-382c0-90 85-244 192-349 14-14 35-13 48 0s13 35 0 48c-102 99-172 238-172 301v348h651c19 0 34 15 34 34 0 18-15 33-34 33z"/><path class="fil0" d="M2147 1735c0 45-146 490-327 490-180 0-327-445-327-490 0-46 147 136 327 136 181 0 327-182 327-136z"/><path class="fil1" d="M1820 2259c-212 0-360-482-360-524 0-19 15-34 33-34 19 0 34 15 34 34 3 49 148 456 293 456 146 0 291-407 294-457 1-18 15-33 34-33 19 1 33 15 33 34 0 42-148 524-361 524z"/><path class="fil1" d="M1299 2168c-18 0-33-14-34-31-3-45-17-272 6-332 40-109 157-120 214-111 18 3 31 21 28 39-3 19-21 31-39 28-5-1-109-16-140 67-12 35-8 199-2 304 2 19-12 35-31 36h-2zm985-100c-19 0-34-15-34-34 0-127-9-228-24-257-14-29-58-17-60-17-18 5-37-5-42-23s6-37 24-42c34-10 107-11 139 52 25 51 31 184 31 287 0 19-16 34-34 34zm-669 552c-19 0-34-15-34-34v-203c0-131 163-193 170-196 18-6 37 3 44 21 6 17-3 37-20 43-3 1-126 48-126 132v203c0 19-15 34-34 34z"/><path class="fil2" d="M1316 2123c-83 0-151 68-151 152 0 83 68 151 151 151 84 0 152-68 152-151 0-84-68-152-152-152z"/><path class="fil3" d="M1316 2213c-34 0-61 28-61 62 0 33 27 61 61 61s62-28 62-61c0-34-28-62-62-62z"/><path class="fil1" d="M2099 2387c-10 0-20-4-27-13-28-37-40-95-40-134 0-117 107-212 238-212 19 0 34 15 34 34s-15 34-34 34c-94 0-170 65-170 144 0 32 11 73 26 93 12 15 9 36-6 47-6 5-13 7-21 7z"/><path class="fil2" d="M2127 2327c-56-4-74 7-92 25-21 21-21 86-21 108 0 29 43 43 64 43h65c15 0 22-27 22-43v-87c0-29 0-43-38-46z"/><path class="fil1" d="M2454 2387c-7 0-14-2-20-7-15-11-18-32-7-47 15-20 27-61 27-93 0-79-76-144-170-144-19 0-34-15-34-34s15-34 34-34c131 0 238 95 238 212 0 39-13 97-41 134-6 9-16 13-27 13z"/><path class="fil2" d="M2413 2327c55-4 74 7 91 25 22 21 22 86 22 108 0 29-43 43-65 43h-65c-15 0-21-27-21-43v-87c0-29 0-43 38-46z"/><path class="fil1" d="M1841 1265h-91c-18 0-34-15-34-34s16-34 34-34h91c18 0 34 15 34 34s-16 34-34 34z"/></g></svg>