<?xml version="1.0" encoding="UTF-8"?>
<!DOCTYPE svg PUBLIC "-//W3C//DTD SVG 1.1//EN" "http://www.w3.org/Graphics/SVG/1.1/DTD/svg11.dtd">
<!-- Creator: CorelDRAW X8 -->
<svg xmlns="http://www.w3.org/2000/svg" xml:space="preserve" width="130.016mm" height="125.822mm" version="1.1" style="shape-rendering:geometricPrecision; text-rendering:geometricPrecision; image-rendering:optimizeQuality; fill-rule:evenodd; clip-rule:evenodd"
viewBox="0 0 2104 2036"
 xmlns:xlink="http://www.w3.org/1999/xlink">
 <defs>
  <style type="text/css">
   <![CDATA[
    .fil2 {fill:#263357;fill-rule:nonzero}
    .fil0 {fill:#61C4F2;fill-rule:nonzero}
    .fil1 {fill:#F86464;fill-rule:nonzero}
   ]]>
  </style>
 </defs>
 <g id="Слой_x0020_1">
  <metadata id="CorelCorpID_0Corel-Layer"/>
  <path class="fil0" d="M1954 448c-6,0 -13,-2 -18,-7l-93 -96 -23 0c-15,0 -26,-12 -26,-26 0,-14 11,-26 26,-26l34 0c7,0 14,3 19,8l50 51 -3 -31c-1,-7 2,-14 7,-19 5,-6 11,-9 19,-9l49 0c32,0 58,-26 58,-57l0 -127c0,-31 -26,-57 -58,-57l-385 0c-32,0 -58,26 -58,57 0,15 -11,26 -26,26 -14,0 -25,-11 -25,-26 0,-60 49,-109 109,-109l385 0c60,0 109,49 109,109l0 127c0,60 -49,109 -109,109l-21 0 6 75c1,11 -5,22 -15,26 -3,2 -7,2 -11,2z"/>
  <path class="fil1" d="M1255 241c-36,0 -65,30 -65,65l0 164c0,36 29,65 65,65l54 0c7,0 14,3 19,8 5,5 7,13 7,20l-4 47 81 -69c5,-4 11,-6 17,-6l214 0c36,0 65,-29 65,-65l0 -164c0,-35 -29,-65 -65,-65l-388 0zm44 455c-4,0 -8,-1 -12,-3 -9,-5 -14,-15 -13,-25l7 -82 -26 0c-64,0 -117,-52 -117,-116l0 -164c0,-64 53,-116 117,-116l388 0c64,0 116,52 116,116l0 164c0,64 -52,116 -116,116l-205 0 -122 104c-5,4 -11,6 -17,6z"/>
  <path class="fil2" d="M1667 1319c-14,0 -26,-11 -26,-25 -1,-14 10,-26 25,-26 109,-4 204,-68 249,-167 65,-143 1,-312 -142,-377 -143,-65 -312,-1 -376,142 -35,76 -34,162 1,238 6,13 1,28 -12,34 -13,6 -29,1 -35,-12 -41,-89 -42,-192 -1,-282 76,-169 276,-244 445,-167 169,76 244,276 167,445 -53,117 -166,193 -295,197 0,0 0,0 0,0z"/>
  <path class="fil2" d="M1598 1172c-3,0 -7,-1 -10,-2 -13,-6 -19,-21 -14,-34l10 -22c5,-13 21,-19 34,-13 13,5 19,20 13,34l-9 21c-4,10 -14,16 -24,16z"/>
  <path class="fil2" d="M1688 881c-3,0 -6,0 -8,-1 -14,-4 -21,-19 -17,-33l13 -41c5,-14 19,-21 33,-17 13,5 21,19 17,33l-14 41c-3,11 -13,18 -24,18z"/>
  <path class="fil2" d="M1643 1141c-16,0 -32,-3 -45,-8 -52,-18 -73,-66 -78,-80 -5,-14 2,-28 16,-33 13,-5 28,2 33,16 2,6 15,38 46,49 16,5 45,8 58,-6 8,-9 11,-26 7,-40 -5,-16 -18,-24 -39,-37 -22,-13 -50,-30 -58,-65 -7,-29 2,-62 23,-82 32,-31 81,-27 113,-10 39,19 52,56 56,71 4,13 -4,28 -18,31 -14,4 -28,-4 -32,-18 -1,-6 -9,-28 -30,-38 -16,-9 -41,-11 -53,1 -7,7 -12,20 -9,33 3,14 15,21 35,33 22,13 51,30 62,66 9,32 2,67 -18,90 -18,20 -44,27 -69,27z"/>
  <path class="fil0" d="M965 1499c36,0 65,29 65,65 0,36 -29,65 -65,65 -36,0 -65,-29 -65,-65 0,-36 29,-65 65,-65zm597 364c5,-8 8,-17 8,-26l0 -557c0,-31 -25,-55 -56,-55l-1096 0c-31,0 -56,24 -56,55l0 557c0,9 3,18 8,26 -80,0 -129,0 -129,0l0 13c0,50 41,108 91,108l1285 0c50,0 91,-58 91,-108l0 -13c0,0 -65,0 -146,0z"/>
  <path class="fil2" d="M427 1242c-26,0 -48,21 -48,48l0 529c0,24 20,44 44,44l1068 0c24,0 44,-20 44,-44l0 -529c0,-27 -21,-48 -48,-48l-1060 0zm1064 673l-1068 0c-52,0 -95,-43 -95,-96l0 -529c0,-55 44,-100 99,-100l1060 0c55,0 100,45 100,100l0 529c0,53 -43,96 -96,96z"/>
  <path class="fil2" d="M1837 2035l-1811 0c-14,0 -26,-11 -26,-26 0,-14 12,-25 26,-25l1811 0c14,0 26,11 26,25 0,15 -12,26 -26,26z"/>
  <path class="fil2" d="M1609 2035l-1286 0c-66,0 -116,-70 -116,-133l0 -13c0,-15 12,-26 26,-26l172 0c15,0 26,11 26,26 0,14 -11,26 -26,26l-145 0c6,33 33,69 63,69l1286 0c30,0 57,-36 63,-69l-163 0c-14,0 -26,-12 -26,-26 0,-15 12,-26 26,-26l190 0c14,0 26,11 26,26l0 13c0,63 -50,133 -116,133z"/>
  <path class="fil2" d="M1943 1982c-15,0 -28,12 -28,27 0,15 13,27 28,27 15,0 27,-12 27,-27 0,-15 -12,-27 -27,-27z"/>
  <path class="fil2" d="M248 1830c-3,0 -6,-1 -8,-1 -55,-19 -148,-58 -161,-115 -33,-150 59,-434 138,-563 61,-102 193,-130 263,-145 8,-2 16,-3 23,-5 8,-2 16,0 22,5 93,78 269,79 348,2 6,-6 16,-9 24,-7 7,2 14,3 23,5 57,12 152,33 219,93 11,9 12,26 2,36 -9,11 -26,12 -36,2 -57,-50 -144,-69 -196,-80 -4,-1 -7,-2 -11,-3 -98,83 -285,83 -395,0 -4,1 -8,2 -12,3 -67,14 -180,38 -230,121 -72,119 -162,389 -132,525 5,21 58,54 127,76 13,5 21,20 16,33 -3,11 -13,18 -24,18z"/>
  <path class="fil2" d="M950 952c-14,0 -26,-11 -26,-25 -1,-14 11,-26 25,-26 51,-2 95,-15 128,-30 -16,-26 -31,-58 -45,-90 -29,-64 -44,-114 -44,-151 -1,-14 11,-26 25,-26 15,0 26,11 26,25 1,30 14,74 40,131 18,40 37,80 56,106 5,6 6,14 5,21 -2,7 -7,14 -13,17 -55,30 -116,47 -177,48 0,0 0,0 0,0z"/>
  <path class="fil2" d="M479 946c-63,0 -128,-17 -187,-49 -6,-3 -11,-9 -13,-17 -1,-7 0,-15 5,-21 22,-31 52,-76 67,-117 18,-51 33,-134 33,-134 3,-14 16,-24 31,-21 14,2 23,16 20,30 0,3 -16,88 -35,142 -13,36 -36,75 -57,106 44,19 91,29 136,29 15,0 26,12 26,26 0,14 -11,26 -26,26 0,0 0,0 0,0z"/>
  <path class="fil2" d="M718 971c-156,0 -291,-144 -321,-344 -2,-14 8,-27 22,-29 14,-3 27,7 29,21 27,174 140,301 270,301 130,0 243,-127 269,-301 2,-14 15,-24 29,-21 15,2 24,15 22,29 -30,200 -165,344 -320,344z"/>
  <path class="fil2" d="M630 621l-52 0c-14,0 -26,-12 -26,-26 0,-14 12,-26 26,-26l52 0c14,0 25,12 25,26 0,14 -11,26 -25,26z"/>
  <path class="fil2" d="M854 621l-52 0c-14,0 -26,-12 -26,-26 0,-14 12,-26 26,-26l52 0c14,0 26,12 26,26 0,14 -12,26 -26,26z"/>
  <path class="fil2" d="M718 839c-32,0 -64,-12 -93,-34 -12,-9 -14,-25 -5,-36 8,-12 25,-14 36,-5 41,30 83,30 124,0 11,-9 27,-7 36,5 8,11 6,27 -5,36 -29,22 -62,34 -93,34z"/>
  <path class="fil2" d="M425 662c-11,0 -20,-7 -24,-17 -62,-151 -27,-319 39,-407 31,-41 67,-64 104,-67 19,-28 62,-54 113,-67 55,-13 198,-30 338,111 124,123 87,312 46,405 -5,10 -16,16 -28,15 -39,-6 -59,-32 -83,-61 -20,-25 -46,-57 -94,-90 -25,-18 -64,-29 -104,-42 -80,-24 -170,-52 -195,-138 -4,-13 4,-28 18,-32 14,-4 28,4 32,18 17,59 90,81 160,103 45,13 86,26 118,48 55,38 84,74 105,101 14,16 23,27 32,34 30,-82 51,-230 -43,-324 -122,-123 -243,-109 -290,-97 -53,13 -81,39 -84,50 -4,12 -16,19 -28,18 -24,-3 -51,14 -75,46 -46,61 -74,165 -57,272 18,-44 46,-94 87,-134 10,-11 26,-11 37,0 10,10 10,26 0,36 -61,61 -92,150 -98,196 -2,12 -11,21 -23,22 -1,0 -2,1 -3,1z"/>
 </g>
</svg>
