<?xml version="1.0" encoding="UTF-8"?>
<!DOCTYPE svg PUBLIC "-//W3C//DTD SVG 1.1//EN" "http://www.w3.org/Graphics/SVG/1.1/DTD/svg11.dtd">
<!-- Creator: CorelDRAW X8 -->
<svg xmlns="http://www.w3.org/2000/svg" xml:space="preserve" width="116.349mm" height="126.875mm" version="1.1" style="shape-rendering:geometricPrecision; text-rendering:geometricPrecision; image-rendering:optimizeQuality; fill-rule:evenodd; clip-rule:evenodd"
viewBox="0 0 1500 1636"
 xmlns:xlink="http://www.w3.org/1999/xlink">
 <defs>
  <style type="text/css">
   <![CDATA[
    .fil0 {fill:#263357;fill-rule:nonzero}
    .fil1 {fill:#61C4F2;fill-rule:nonzero}
    .fil3 {fill:#F86464;fill-rule:nonzero}
    .fil2 {fill:white;fill-rule:nonzero}
   ]]>
  </style>
 </defs>
 <g id="Слой_x0020_1">
  <metadata id="CorelCorpID_0Corel-Layer"/>
  <path class="fil0" d="M344 237c0,12 9,22 22,22 12,0 22,-10 22,-22 0,-12 -10,-22 -22,-22 -13,0 -22,10 -22,22z"/>
  <path class="fil0" d="M884 1485c-17,0 -34,-4 -48,-14 -11,-8 -24,-25 -24,-55 0,-12 10,-21 21,-21 12,0 21,9 21,21 0,16 6,20 7,22 17,12 61,0 76,-5l3 0c305,-85 518,-366 518,-683 0,-190 -74,-368 -208,-502 -134,-133 -311,-206 -500,-206 -1,0 -2,0 -4,0 -378,1 -694,310 -704,688 -6,200 70,387 212,526 9,8 9,22 1,30 -8,8 -21,8 -30,0 -148,-146 -230,-348 -225,-557 11,-400 346,-727 746,-729 202,-2 391,77 533,218 142,142 221,331 221,532 0,336 -226,633 -548,723l-4 1c-15,4 -39,11 -64,11z"/>
  <path class="fil1" d="M394 1208c-113,0 -204,91 -204,203 0,113 91,204 204,204 112,0 203,-91 203,-204 0,-112 -91,-203 -203,-203z"/>
  <path class="fil0" d="M394 1229c-101,0 -183,82 -183,182 0,101 82,183 183,183 101,0 183,-82 183,-183 0,-100 -82,-182 -183,-182zm0 407c-124,0 -224,-101 -224,-225 0,-123 100,-224 224,-224 124,0 224,101 224,224 0,124 -100,225 -224,225z"/>
  <path class="fil0" d="M840 1420c-50,0 -97,-29 -131,-80 -1,-1 -1,-1 -1,-2l-125 -227c-32,-62 -25,-98 -13,-118 12,-21 34,-28 48,-28l12 0c11,0 21,9 21,21 0,11 -10,20 -21,20l-12 0c-2,0 -9,2 -13,9 -4,7 -11,28 15,76l124 226c26,39 60,61 96,61 36,0 70,-22 97,-61l127 -231c25,-44 19,-64 15,-71 -4,-7 -11,-9 -12,-9l-16 0c-12,0 -21,-9 -21,-20 0,-12 9,-21 21,-21l16 0c15,0 36,9 48,29 11,20 18,55 -15,113l-127 231c0,1 -1,1 -1,2 -35,51 -81,80 -132,80z"/>
  <path class="fil2" d="M394 1327c-47,0 -85,38 -85,84 0,47 38,85 85,85 47,0 85,-38 85,-85 0,-46 -38,-84 -85,-84z"/>
  <path class="fil1" d="M765 996c0,47 -4,85 -51,85 -47,0 -84,-38 -84,-85 0,-46 37,-84 84,-84 47,0 51,38 51,84z"/>
  <path class="fil3" d="M1105 381l-723 0c-61,0 -110,49 -110,110l0 252c0,60 49,110 110,110l723 0c60,0 109,-50 109,-110l0 -252c0,-61 -49,-110 -109,-110z"/>
  <path class="fil1" d="M923 996c0,47 4,85 51,85 46,0 84,-38 84,-85 0,-46 -38,-84 -84,-84 -47,0 -51,38 -51,84z"/>
  <path class="fil2" d="M688 642l-57 0 51 -78 5 -11 1 1 0 88zm49 -153l-49 0 -101 162 2 29 99 0 0 53 49 0 0 -53 28 0 0 -38 -28 0 0 -153zm35 265l47 0 90 -265 -48 0 -89 265zm152 -265l0 38 124 0c-23,27 -42,55 -54,83 -12,28 -19,59 -19,93l0 30 49 0 0 -30c0,-34 5,-63 15,-89 10,-26 29,-55 56,-87l0 -38 -171 0zm-460 205l40 -48c19,-21 32,-38 40,-50 8,-12 12,-25 12,-40 0,-21 -7,-38 -21,-51 -14,-13 -33,-19 -58,-19 -25,0 -45,7 -60,22 -15,15 -22,33 -22,55l1 1 47 0c0,-12 3,-22 9,-29 6,-8 14,-12 25,-12 10,0 17,3 22,9 5,6 8,14 8,24 0,8 -3,17 -7,26 -5,9 -13,20 -24,33l-76 86 0 32 164 0 0 -38 -100 0 0 -1z"/>
  <path class="fil0" d="M1388 769c-12,0 -21,-9 -21,-20 0,-341 -277,-617 -617,-617 -109,0 -216,29 -310,83 -10,6 -22,2 -28,-8 -6,-9 -3,-22 7,-28 100,-58 215,-89 331,-89 363,0 658,295 658,659 0,11 -9,20 -20,20z"/>
 </g>
</svg>
