<?xml version="1.0" encoding="UTF-8"?>
<!DOCTYPE svg PUBLIC "-//W3C//DTD SVG 1.1//EN" "http://www.w3.org/Graphics/SVG/1.1/DTD/svg11.dtd">
<!-- Creator: CorelDRAW X8 -->
<svg xmlns="http://www.w3.org/2000/svg" xml:space="preserve" width="126.874mm" height="132.249mm" version="1.1" style="shape-rendering:geometricPrecision; text-rendering:geometricPrecision; image-rendering:optimizeQuality; fill-rule:evenodd; clip-rule:evenodd"
viewBox="0 0 2688 2802"
 xmlns:xlink="http://www.w3.org/1999/xlink">
 <defs>
  <style type="text/css">
   <![CDATA[
    .fil0 {fill:#263357;fill-rule:nonzero}
    .fil2 {fill:#61C4F2;fill-rule:nonzero}
    .fil1 {fill:#F86464;fill-rule:nonzero}
    .fil3 {fill:white;fill-rule:nonzero}
   ]]>
  </style>
 </defs>
 <g id="Слой_x0020_1">
  <metadata id="CorelCorpID_0Corel-Layer"/>
  <path class="fil0" d="M2437 205l182 0 0 -30c0,-42 -11,-94 -64,-102 -5,-1 -10,-1 -15,-1 -57,0 -103,46 -103,102l0 31zm217 68l-251 0c-19,0 -34,-15 -34,-34l0 -65c0,-94 77,-171 171,-171 9,0 18,1 26,3 76,11 122,74 122,169l0 64c0,19 -15,34 -34,34z"/>
  <path class="fil0" d="M2575 2142c-20,0 -36,16 -36,35 0,20 16,36 36,36 19,0 35,-16 35,-36 0,-19 -16,-35 -35,-35z"/>
  <polygon class="fil1" points="1298,424 1187,408 1138,309 1088,408 977,424 1057,501 1038,610 1138,559 1237,610 1218,501 "/>
  <polygon class="fil1" points="1708,424 1597,408 1548,309 1498,408 1387,424 1467,501 1448,610 1548,559 1647,610 1628,501 "/>
  <polygon class="fil1" points="1480,743 1369,727 1320,628 1270,727 1159,743 1240,820 1221,929 1320,878 1419,929 1400,820 "/>
  <polygon class="fil1" points="1890,743 1779,727 1730,628 1680,727 1569,743 1650,820 1631,929 1730,878 1829,929 1810,820 "/>
  <polygon class="fil1" points="2118,424 2007,408 1958,309 1908,408 1797,424 1877,501 1858,610 1958,559 2057,610 2038,501 "/>
  <path class="fil0" d="M2286 2528l-1546 0c-19,0 -34,-15 -34,-34 0,-19 15,-34 34,-34l1546 0c46,0 83,-37 83,-83l0 -2158c0,-19 15,-34 34,-34 19,0 34,15 34,34l0 2158c0,84 -67,151 -151,151z"/>
  <path class="fil0" d="M740 284c-19,0 -34,-16 -34,-35 0,-137 112,-249 250,-249l1581 0c19,0 34,15 34,34 0,19 -15,34 -34,34l-1581 0c-100,0 -182,82 -182,181 0,19 -15,35 -34,35z"/>
  <path class="fil0" d="M330 668c-13,0 -24,-8 -30,-19 -13,-10 -26,-23 -33,-51 -13,-53 7,-76 20,-85 18,-12 41,-12 60,1 15,11 19,32 8,48 -6,8 -14,13 -23,14 1,2 1,4 2,6 2,8 3,9 7,12 6,4 19,14 23,33 4,18 -8,36 -27,40 -2,0 -4,1 -7,1z"/>
  <path class="fil0" d="M673 668c-2,0 -5,-1 -7,-1 -18,-4 -30,-22 -27,-40 4,-19 17,-29 23,-33 5,-3 6,-4 8,-12 0,-2 1,-4 1,-6 -9,-1 -17,-6 -23,-14 -11,-16 -7,-37 9,-48 18,-13 41,-13 59,-1 13,9 33,32 20,85 -7,28 -20,41 -33,51 -5,11 -17,19 -30,19z"/>
  <path class="fil0" d="M391 465c22,0 44,9 65,18 13,5 25,10 39,14 41,12 87,12 136,2 6,-2 12,-2 18,-1 0,-9 -1,-18 -4,-27 -21,-66 -65,-95 -143,-95 -77,0 -121,28 -142,90 -1,2 -2,5 -2,7 11,-5 22,-8 33,-8zm-50 135c-11,0 -22,-5 -29,-15 -26,-42 -32,-95 -17,-141 31,-91 101,-136 207,-136 108,0 178,48 208,143 13,42 8,91 -14,132 -7,11 -19,18 -31,17 -13,0 -25,-8 -30,-19 -2,-5 -4,-9 -6,-12 -55,9 -106,7 -154,-7 -16,-5 -31,-11 -44,-16 -17,-6 -37,-15 -43,-11 -2,1 -5,5 -7,10 -3,6 -5,15 -6,25 -1,15 -12,26 -26,30 -3,0 -5,0 -8,0z"/>
  <path class="fil0" d="M502 855c-100,0 -186,-91 -205,-216 -3,-19 10,-36 28,-39 19,-3 36,10 39,28 14,92 72,158 138,158 65,0 123,-66 137,-158 3,-18 20,-31 39,-28 18,3 31,20 29,39 -19,125 -105,216 -205,216z"/>
  <path class="fil2" d="M182 1640l23 273 569 0 23 -250c0,0 157,0 160,0l0 -547c0,-122 -140,-219 -265,-247 -117,91 -270,88 -382,0 -125,28 -264,79 -264,202l-23 569 159 0z"/>
  <path class="fil0" d="M892 1868l-106 0c-19,0 -34,-16 -34,-34 0,-19 15,-35 34,-35l106 0c10,0 19,-8 19,-19l0 -674c-8,-92 -116,-178 -217,-206 -60,42 -129,65 -200,65 -72,0 -141,-23 -201,-65 -111,29 -225,100 -225,196l0 686c0,10 8,17 17,17l109 0c19,0 34,16 34,35 0,18 -15,34 -34,34l-109 0c-47,0 -85,-38 -85,-86l0 -686c0,-139 147,-234 294,-266 9,-3 20,0 28,6 51,39 110,60 172,60 61,0 121,-21 172,-60 8,-6 18,-9 28,-6 132,29 274,139 285,272 0,1 0,2 0,3l0 675c0,48 -39,88 -87,88z"/>
  <path class="fil0" d="M718 2642c-19,0 -35,-15 -35,-34l0 -660c0,-19 16,-35 35,-35 18,0 34,16 34,35l0 660c0,19 -16,34 -34,34z"/>
  <path class="fil0" d="M306 2642c-31,0 -55,25 -55,56l0 7c0,16 12,28 28,28l422 0c15,0 28,-12 28,-28l0 -7c0,-31 -25,-56 -55,-56l-368 0zm395 160l-422 0c-53,0 -97,-44 -97,-97l0 -7c0,-69 56,-124 124,-124l368 0c68,0 123,55 123,124l0 7c0,53 -43,97 -96,97z"/>
  <path class="fil0" d="M490 2779c-19,0 -34,-15 -34,-34l0 -775c0,-19 15,-34 34,-34 19,0 34,15 34,34l0 775c0,19 -15,34 -34,34z"/>
  <path class="fil0" d="M262 2642c-19,0 -34,-15 -34,-34l0 -683c0,-19 15,-34 34,-34 19,0 34,15 34,34l0 683c0,19 -15,34 -34,34z"/>
  <path class="fil0" d="M786 1959l-592 0c-19,0 -35,-15 -35,-34l0 -775c0,-19 16,-34 35,-34 19,0 34,15 34,34l0 741 524 0 0 -763c0,-19 15,-35 34,-35 19,0 34,16 34,35l0 797c0,19 -15,34 -34,34z"/>
  <path class="fil0" d="M923 1708l-114 0c-19,0 -35,-15 -35,-34 0,-19 16,-34 35,-34l114 0c18,0 34,15 34,34 0,19 -16,34 -34,34z"/>
  <path class="fil0" d="M171 1708l-114 0c-19,0 -34,-15 -34,-34 0,-19 15,-34 34,-34l114 0c19,0 34,15 34,34 0,19 -15,34 -34,34z"/>
  <path class="fil0" d="M353 1276c-16,0 -31,-12 -34,-29l-57 -353c-3,-19 10,-36 29,-39 18,-4 36,9 39,28l57 353c3,19 -10,36 -28,39 -2,0 -4,1 -6,1z"/>
  <path class="fil0" d="M638 1105c-4,0 -8,-1 -12,-2 -18,-7 -27,-27 -20,-44l68 -183c7,-17 26,-26 44,-20 18,7 27,27 20,44l-68 183c-5,13 -18,22 -32,22z"/>
  <path class="fil3" d="M353 1207c-44,0 -80,36 -80,80 0,44 36,80 80,80 44,0 80,-36 80,-80 0,-44 -36,-80 -80,-80z"/>
  <path class="fil0" d="M672 1253c-6,0 -12,-2 -18,-5 -16,-10 -21,-31 -11,-47 11,-19 25,-56 17,-73 -1,-3 -3,-9 -19,-13 -21,-5 -37,-4 -48,4 -18,14 -23,44 -24,55 0,19 -16,35 -35,33 -19,-1 -33,-16 -33,-35 0,-7 4,-72 50,-107 20,-15 54,-29 106,-16 41,10 59,34 67,53 23,56 -18,126 -23,134 -6,11 -17,17 -29,17z"/>
  <path class="fil0" d="M656 1185c-25,2 -43,24 -41,49 3,25 25,44 50,41 25,-2 43,-24 41,-49 -2,-25 -25,-44 -50,-41z"/>
  <path class="fil0" d="M542 1162c-25,2 -43,25 -41,50 3,25 25,43 50,41 25,-3 43,-25 41,-50 -2,-25 -25,-44 -50,-41z"/>
  <path class="fil0" d="M1720 1162l-638 0c-19,0 -34,-16 -34,-34 0,-19 15,-35 34,-35l638 0c19,0 34,16 34,35 0,18 -15,34 -34,34z"/>
  <polygon class="fil1" points="1686,2027 1686,2323 1549,2232 1412,2323 1412,2027 "/>
  <path class="fil0" d="M1925 1389l-843 0c-19,0 -34,-15 -34,-34 0,-19 15,-34 34,-34l843 0c19,0 34,15 34,34 0,19 -15,34 -34,34z"/>
  <path class="fil1" d="M1549 1555c-164,0 -296,132 -296,296 0,163 132,296 296,296 163,0 296,-133 296,-296 0,-164 -133,-296 -296,-296z"/>
  <path class="fil3" d="M1549 1714c-76,0 -137,61 -137,137 0,75 61,136 137,136 75,0 137,-61 137,-136 0,-76 -62,-137 -137,-137z"/>
  <path class="fil0" d="M2563 2073c-19,0 -35,-16 -35,-34l0 -1094c0,-19 16,-34 35,-34 18,0 34,15 34,34l0 1094c0,18 -16,34 -34,34z"/>
 </g>
</svg>
